<svg xmlns="http://www.w3.org/2000/svg" xmlns:xlink="http://www.w3.org/1999/xlink" width="240" zoomAndPan="magnify" viewBox="0 0 180 54" height="72" preserveAspectRatio="xMidYMid meet" version="1.0"><defs><clipPath id="4c99f1c729"><path d="M 12.480469 19.441406 L 55.332031 19.441406 L 55.332031 33.578125 L 12.480469 33.578125 Z M 12.480469 19.441406 " clip-rule="nonzero"/></clipPath><clipPath id="52103cb765"><path d="M 14.691406 19.441406 L 53.109375 19.441406 C 54.328125 19.441406 55.316406 20.429688 55.316406 21.648438 L 55.316406 31.367188 C 55.316406 32.589844 54.328125 33.578125 53.109375 33.578125 L 14.691406 33.578125 C 13.46875 33.578125 12.480469 32.589844 12.480469 31.367188 L 12.480469 21.648438 C 12.480469 20.429688 13.46875 19.441406 14.691406 19.441406 Z M 14.691406 19.441406 " clip-rule="nonzero"/></clipPath><clipPath id="48564e9d98"><path d="M 0.480469 0.441406 L 43.332031 0.441406 L 43.332031 14.578125 L 0.480469 14.578125 Z M 0.480469 0.441406 " clip-rule="nonzero"/></clipPath><clipPath id="ef0bad8e55"><path d="M 2.691406 0.441406 L 41.109375 0.441406 C 42.328125 0.441406 43.316406 1.429688 43.316406 2.648438 L 43.316406 12.367188 C 43.316406 13.589844 42.328125 14.578125 41.109375 14.578125 L 2.691406 14.578125 C 1.46875 14.578125 0.480469 13.589844 0.480469 12.367188 L 0.480469 2.648438 C 0.480469 1.429688 1.46875 0.441406 2.691406 0.441406 Z M 2.691406 0.441406 " clip-rule="nonzero"/></clipPath><clipPath id="e9564f2f3e"><rect x="0" width="44" y="0" height="15"/></clipPath><clipPath id="3760f8c42e"><path d="M 16.546875 22.316406 L 25.703125 22.316406 L 25.703125 30.996094 L 16.546875 30.996094 Z M 16.546875 22.316406 " clip-rule="nonzero"/></clipPath><clipPath id="59d43955a7"><path d="M 18.753906 22.316406 L 23.460938 22.316406 C 24.683594 22.316406 25.671875 23.304688 25.671875 24.523438 L 25.671875 28.789062 C 25.671875 30.007812 24.683594 30.996094 23.460938 30.996094 L 18.753906 30.996094 C 17.535156 30.996094 16.546875 30.007812 16.546875 28.789062 L 16.546875 24.523438 C 16.546875 23.304688 17.535156 22.316406 18.753906 22.316406 Z M 18.753906 22.316406 " clip-rule="nonzero"/></clipPath><clipPath id="2d5a42eec8"><path d="M 0.546875 0.316406 L 9.671875 0.316406 L 9.671875 8.996094 L 0.546875 8.996094 Z M 0.546875 0.316406 " clip-rule="nonzero"/></clipPath><clipPath id="87e0279ec9"><path d="M 2.753906 0.316406 L 7.460938 0.316406 C 8.683594 0.316406 9.671875 1.304688 9.671875 2.523438 L 9.671875 6.789062 C 9.671875 8.007812 8.683594 8.996094 7.460938 8.996094 L 2.753906 8.996094 C 1.535156 8.996094 0.546875 8.007812 0.546875 6.789062 L 0.546875 2.523438 C 0.546875 1.304688 1.535156 0.316406 2.753906 0.316406 Z M 2.753906 0.316406 " clip-rule="nonzero"/></clipPath><clipPath id="31d1fe78cf"><rect x="0" width="10" y="0" height="9"/></clipPath><clipPath id="0ce7c8efab"><path d="M 68.59375 19.441406 L 111.445312 19.441406 L 111.445312 33.578125 L 68.59375 33.578125 Z M 68.59375 19.441406 " clip-rule="nonzero"/></clipPath><clipPath id="fe64ccdbe7"><path d="M 70.800781 19.441406 L 109.21875 19.441406 C 110.4375 19.441406 111.429688 20.429688 111.429688 21.648438 L 111.429688 31.367188 C 111.429688 32.589844 110.4375 33.578125 109.21875 33.578125 L 70.800781 33.578125 C 69.582031 33.578125 68.59375 32.589844 68.59375 31.367188 L 68.59375 21.648438 C 68.59375 20.429688 69.582031 19.441406 70.800781 19.441406 Z M 70.800781 19.441406 " clip-rule="nonzero"/></clipPath><clipPath id="c86d1d8302"><path d="M 0.59375 0.441406 L 43.441406 0.441406 L 43.441406 14.578125 L 0.59375 14.578125 Z M 0.59375 0.441406 " clip-rule="nonzero"/></clipPath><clipPath id="04bac812c7"><path d="M 2.800781 0.441406 L 41.21875 0.441406 C 42.4375 0.441406 43.429688 1.429688 43.429688 2.648438 L 43.429688 12.367188 C 43.429688 13.589844 42.4375 14.578125 41.21875 14.578125 L 2.800781 14.578125 C 1.582031 14.578125 0.59375 13.589844 0.59375 12.367188 L 0.59375 2.648438 C 0.59375 1.429688 1.582031 0.441406 2.800781 0.441406 Z M 2.800781 0.441406 " clip-rule="nonzero"/></clipPath><clipPath id="af9ca5e2b4"><rect x="0" width="44" y="0" height="15"/></clipPath><clipPath id="f008c5a92d"><path d="M 72.566406 22.316406 L 81.726562 22.316406 L 81.726562 30.996094 L 72.566406 30.996094 Z M 72.566406 22.316406 " clip-rule="nonzero"/></clipPath><clipPath id="2cb6ce597c"><path d="M 74.777344 22.316406 L 79.484375 22.316406 C 80.703125 22.316406 81.691406 23.304688 81.691406 24.523438 L 81.691406 28.789062 C 81.691406 30.007812 80.703125 30.996094 79.484375 30.996094 L 74.777344 30.996094 C 73.554688 30.996094 72.566406 30.007812 72.566406 28.789062 L 72.566406 24.523438 C 72.566406 23.304688 73.554688 22.316406 74.777344 22.316406 Z M 74.777344 22.316406 " clip-rule="nonzero"/></clipPath><clipPath id="eadbdf5cbe"><path d="M 0.566406 0.316406 L 9.726562 0.316406 L 9.726562 8.996094 L 0.566406 8.996094 Z M 0.566406 0.316406 " clip-rule="nonzero"/></clipPath><clipPath id="e3e3dee76d"><path d="M 2.777344 0.316406 L 7.484375 0.316406 C 8.703125 0.316406 9.691406 1.304688 9.691406 2.523438 L 9.691406 6.789062 C 9.691406 8.007812 8.703125 8.996094 7.484375 8.996094 L 2.777344 8.996094 C 1.554688 8.996094 0.566406 8.007812 0.566406 6.789062 L 0.566406 2.523438 C 0.566406 1.304688 1.554688 0.316406 2.777344 0.316406 Z M 2.777344 0.316406 " clip-rule="nonzero"/></clipPath><clipPath id="4056ac9547"><rect x="0" width="10" y="0" height="9"/></clipPath><clipPath id="e0ae954128"><path d="M 124.683594 19.441406 L 167.535156 19.441406 L 167.535156 33.578125 L 124.683594 33.578125 Z M 124.683594 19.441406 " clip-rule="nonzero"/></clipPath><clipPath id="bffcaa85e3"><path d="M 126.890625 19.441406 L 165.308594 19.441406 C 166.53125 19.441406 167.519531 20.429688 167.519531 21.648438 L 167.519531 31.367188 C 167.519531 32.589844 166.53125 33.578125 165.308594 33.578125 L 126.890625 33.578125 C 125.671875 33.578125 124.683594 32.589844 124.683594 31.367188 L 124.683594 21.648438 C 124.683594 20.429688 125.671875 19.441406 126.890625 19.441406 Z M 126.890625 19.441406 " clip-rule="nonzero"/></clipPath><clipPath id="3af9f44087"><path d="M 0.683594 0.441406 L 43.523438 0.441406 L 43.523438 14.578125 L 0.683594 14.578125 Z M 0.683594 0.441406 " clip-rule="nonzero"/></clipPath><clipPath id="68aedf539d"><path d="M 2.890625 0.441406 L 41.308594 0.441406 C 42.53125 0.441406 43.519531 1.429688 43.519531 2.648438 L 43.519531 12.367188 C 43.519531 13.589844 42.53125 14.578125 41.308594 14.578125 L 2.890625 14.578125 C 1.671875 14.578125 0.683594 13.589844 0.683594 12.367188 L 0.683594 2.648438 C 0.683594 1.429688 1.671875 0.441406 2.890625 0.441406 Z M 2.890625 0.441406 " clip-rule="nonzero"/></clipPath><clipPath id="3037e00f66"><rect x="0" width="44" y="0" height="15"/></clipPath><clipPath id="6ca8a4c4df"><path d="M 128.65625 22.316406 L 137.816406 22.316406 L 137.816406 30.996094 L 128.65625 30.996094 Z M 128.65625 22.316406 " clip-rule="nonzero"/></clipPath><clipPath id="2a09c0296a"><path d="M 130.867188 22.316406 L 135.574219 22.316406 C 136.792969 22.316406 137.785156 23.304688 137.785156 24.523438 L 137.785156 28.789062 C 137.785156 30.007812 136.792969 30.996094 135.574219 30.996094 L 130.867188 30.996094 C 129.648438 30.996094 128.65625 30.007812 128.65625 28.789062 L 128.65625 24.523438 C 128.65625 23.304688 129.648438 22.316406 130.867188 22.316406 Z M 130.867188 22.316406 " clip-rule="nonzero"/></clipPath><clipPath id="5d8132c27f"><path d="M 0.65625 0.316406 L 9.816406 0.316406 L 9.816406 8.996094 L 0.65625 8.996094 Z M 0.65625 0.316406 " clip-rule="nonzero"/></clipPath><clipPath id="eb2d3de7f4"><path d="M 2.867188 0.316406 L 7.574219 0.316406 C 8.792969 0.316406 9.785156 1.304688 9.785156 2.523438 L 9.785156 6.789062 C 9.785156 8.007812 8.792969 8.996094 7.574219 8.996094 L 2.867188 8.996094 C 1.648438 8.996094 0.65625 8.007812 0.65625 6.789062 L 0.65625 2.523438 C 0.65625 1.304688 1.648438 0.316406 2.867188 0.316406 Z M 2.867188 0.316406 " clip-rule="nonzero"/></clipPath><clipPath id="a0fec04bd8"><rect x="0" width="10" y="0" height="9"/></clipPath></defs><g clip-path="url(#4c99f1c729)"><g clip-path="url(#52103cb765)"><g transform="matrix(1, 0, 0, 1, 12, 19)"><g clip-path="url(#e9564f2f3e)"><g clip-path="url(#48564e9d98)"><g clip-path="url(#ef0bad8e55)"><path fill="#0080ff" d="M 0.480469 0.441406 L 43.332031 0.441406 L 43.332031 14.578125 L 0.480469 14.578125 Z M 0.480469 0.441406 " fill-opacity="1" fill-rule="nonzero"/></g></g></g></g></g></g><path stroke-linecap="butt" transform="matrix(0.736364, 0, 0, 0.736364, 30.825443, 25.183752)" fill="none" stroke-linejoin="miter" d="M -0.00166198 1.999688 L 24.586012 1.999688 " stroke="#fffffe" stroke-width="4" stroke-opacity="1" stroke-miterlimit="4"/><g clip-path="url(#3760f8c42e)"><g clip-path="url(#59d43955a7)"><g transform="matrix(1, 0, 0, 1, 16, 22)"><g clip-path="url(#31d1fe78cf)"><g clip-path="url(#2d5a42eec8)"><g clip-path="url(#87e0279ec9)"><path fill="#fffffe" d="M 0.546875 0.316406 L 9.667969 0.316406 L 9.667969 8.996094 L 0.546875 8.996094 Z M 0.546875 0.316406 " fill-opacity="1" fill-rule="nonzero"/></g></g></g></g></g></g><g clip-path="url(#0ce7c8efab)"><g clip-path="url(#fe64ccdbe7)"><g transform="matrix(1, 0, 0, 1, 68, 19)"><g clip-path="url(#af9ca5e2b4)"><g clip-path="url(#c86d1d8302)"><g clip-path="url(#04bac812c7)"><path fill="#0080ff" d="M 0.59375 0.441406 L 43.445312 0.441406 L 43.445312 14.578125 L 0.59375 14.578125 Z M 0.59375 0.441406 " fill-opacity="1" fill-rule="nonzero"/></g></g></g></g></g></g><path stroke-linecap="butt" transform="matrix(0.736364, 0, 0, 0.736364, 86.936285, 25.183752)" fill="none" stroke-linejoin="miter" d="M 0.00164944 1.999688 L 24.584019 1.999688 " stroke="#fffffe" stroke-width="4" stroke-opacity="1" stroke-miterlimit="4"/><g clip-path="url(#f008c5a92d)"><g clip-path="url(#2cb6ce597c)"><g transform="matrix(1, 0, 0, 1, 72, 22)"><g clip-path="url(#4056ac9547)"><g clip-path="url(#eadbdf5cbe)"><g clip-path="url(#e3e3dee76d)"><path fill="#fffffe" d="M 0.566406 0.316406 L 9.691406 0.316406 L 9.691406 8.996094 L 0.566406 8.996094 Z M 0.566406 0.316406 " fill-opacity="1" fill-rule="nonzero"/></g></g></g></g></g></g><g clip-path="url(#e0ae954128)"><g clip-path="url(#bffcaa85e3)"><g transform="matrix(1, 0, 0, 1, 124, 19)"><g clip-path="url(#3037e00f66)"><g clip-path="url(#3af9f44087)"><g clip-path="url(#68aedf539d)"><path fill="#0080ff" d="M 0.683594 0.441406 L 43.535156 0.441406 L 43.535156 14.578125 L 0.683594 14.578125 Z M 0.683594 0.441406 " fill-opacity="1" fill-rule="nonzero"/></g></g></g></g></g></g><path stroke-linecap="butt" transform="matrix(0.736364, 0, 0, 0.736364, 143.026805, 25.183752)" fill="none" stroke-linejoin="miter" d="M 0.000731197 1.999688 L 24.583101 1.999688 " stroke="#fffffe" stroke-width="4" stroke-opacity="1" stroke-miterlimit="4"/><g clip-path="url(#6ca8a4c4df)"><g clip-path="url(#2a09c0296a)"><g transform="matrix(1, 0, 0, 1, 128, 22)"><g clip-path="url(#a0fec04bd8)"><g clip-path="url(#5d8132c27f)"><g clip-path="url(#eb2d3de7f4)"><path fill="#fffffe" d="M 0.65625 0.316406 L 9.78125 0.316406 L 9.78125 8.996094 L 0.65625 8.996094 Z M 0.65625 0.316406 " fill-opacity="1" fill-rule="nonzero"/></g></g></g></g></g></g></svg>