<svg xmlns="http://www.w3.org/2000/svg" xmlns:xlink="http://www.w3.org/1999/xlink" width="240" zoomAndPan="magnify" viewBox="0 0 180 54" height="72" preserveAspectRatio="xMidYMid meet" version="1.0"><defs><clipPath id="137802f047"><path d="M 6.679688 22.859375 L 44.566406 22.859375 L 44.566406 30.160156 L 6.679688 30.160156 Z M 6.679688 22.859375 " clip-rule="nonzero"/></clipPath><clipPath id="06bd229678"><path d="M 10.332031 22.859375 L 40.898438 22.859375 C 42.914062 22.859375 44.546875 24.492188 44.546875 26.507812 C 44.546875 28.527344 42.914062 30.160156 40.898438 30.160156 L 10.332031 30.160156 C 8.316406 30.160156 6.679688 28.527344 6.679688 26.507812 C 6.679688 24.492188 8.316406 22.859375 10.332031 22.859375 Z M 10.332031 22.859375 " clip-rule="nonzero"/></clipPath><clipPath id="770e2defef"><path d="M 0.679688 0.859375 L 38.566406 0.859375 L 38.566406 8.160156 L 0.679688 8.160156 Z M 0.679688 0.859375 " clip-rule="nonzero"/></clipPath><clipPath id="c211820532"><path d="M 4.332031 0.859375 L 34.898438 0.859375 C 36.914062 0.859375 38.546875 2.492188 38.546875 4.507812 C 38.546875 6.527344 36.914062 8.160156 34.898438 8.160156 L 4.332031 8.160156 C 2.316406 8.160156 0.679688 6.527344 0.679688 4.507812 C 0.679688 2.492188 2.316406 0.859375 4.332031 0.859375 Z M 4.332031 0.859375 " clip-rule="nonzero"/></clipPath><clipPath id="864ae4b811"><rect x="0" width="39" y="0" height="9"/></clipPath><clipPath id="f41d31a7f1"><path d="M 49.40625 22.859375 L 87.289062 22.859375 L 87.289062 30.160156 L 49.40625 30.160156 Z M 49.40625 22.859375 " clip-rule="nonzero"/></clipPath><clipPath id="e4532136b8"><path d="M 53.058594 22.859375 L 83.625 22.859375 C 85.640625 22.859375 87.273438 24.492188 87.273438 26.507812 C 87.273438 28.527344 85.640625 30.160156 83.625 30.160156 L 53.058594 30.160156 C 51.042969 30.160156 49.40625 28.527344 49.40625 26.507812 C 49.40625 24.492188 51.042969 22.859375 53.058594 22.859375 Z M 53.058594 22.859375 " clip-rule="nonzero"/></clipPath><clipPath id="d46209bf9d"><path d="M 0.40625 0.859375 L 38.289062 0.859375 L 38.289062 8.160156 L 0.40625 8.160156 Z M 0.40625 0.859375 " clip-rule="nonzero"/></clipPath><clipPath id="d9b92a7b23"><path d="M 4.058594 0.859375 L 34.625 0.859375 C 36.640625 0.859375 38.273438 2.492188 38.273438 4.507812 C 38.273438 6.527344 36.640625 8.160156 34.625 8.160156 L 4.058594 8.160156 C 2.042969 8.160156 0.40625 6.527344 0.40625 4.507812 C 0.40625 2.492188 2.042969 0.859375 4.058594 0.859375 Z M 4.058594 0.859375 " clip-rule="nonzero"/></clipPath><clipPath id="d21a8c2f5d"><rect x="0" width="39" y="0" height="9"/></clipPath><clipPath id="89c9fdf1eb"><path d="M 92.429688 22.859375 L 130.3125 22.859375 L 130.3125 30.160156 L 92.429688 30.160156 Z M 92.429688 22.859375 " clip-rule="nonzero"/></clipPath><clipPath id="014cb12f9c"><path d="M 96.082031 22.859375 L 126.644531 22.859375 C 128.660156 22.859375 130.296875 24.492188 130.296875 26.507812 C 130.296875 28.527344 128.660156 30.160156 126.644531 30.160156 L 96.082031 30.160156 C 94.0625 30.160156 92.429688 28.527344 92.429688 26.507812 C 92.429688 24.492188 94.0625 22.859375 96.082031 22.859375 Z M 96.082031 22.859375 " clip-rule="nonzero"/></clipPath><clipPath id="1928b9c314"><path d="M 0.429688 0.859375 L 38.3125 0.859375 L 38.3125 8.160156 L 0.429688 8.160156 Z M 0.429688 0.859375 " clip-rule="nonzero"/></clipPath><clipPath id="5dcd34adcf"><path d="M 4.082031 0.859375 L 34.644531 0.859375 C 36.660156 0.859375 38.296875 2.492188 38.296875 4.507812 C 38.296875 6.527344 36.660156 8.160156 34.644531 8.160156 L 4.082031 8.160156 C 2.0625 8.160156 0.429688 6.527344 0.429688 4.507812 C 0.429688 2.492188 2.0625 0.859375 4.082031 0.859375 Z M 4.082031 0.859375 " clip-rule="nonzero"/></clipPath><clipPath id="e84512d4c4"><rect x="0" width="39" y="0" height="9"/></clipPath><clipPath id="3e2109b875"><path d="M 135.453125 22.859375 L 173.335938 22.859375 L 173.335938 30.160156 L 135.453125 30.160156 Z M 135.453125 22.859375 " clip-rule="nonzero"/></clipPath><clipPath id="d415d90802"><path d="M 139.101562 22.859375 L 169.667969 22.859375 C 171.683594 22.859375 173.320312 24.492188 173.320312 26.507812 C 173.320312 28.527344 171.683594 30.160156 169.667969 30.160156 L 139.101562 30.160156 C 137.085938 30.160156 135.453125 28.527344 135.453125 26.507812 C 135.453125 24.492188 137.085938 22.859375 139.101562 22.859375 Z M 139.101562 22.859375 " clip-rule="nonzero"/></clipPath><clipPath id="d945334b16"><path d="M 0.453125 0.859375 L 38.335938 0.859375 L 38.335938 8.160156 L 0.453125 8.160156 Z M 0.453125 0.859375 " clip-rule="nonzero"/></clipPath><clipPath id="b744be8682"><path d="M 4.101562 0.859375 L 34.667969 0.859375 C 36.683594 0.859375 38.320312 2.492188 38.320312 4.507812 C 38.320312 6.527344 36.683594 8.160156 34.667969 8.160156 L 4.101562 8.160156 C 2.085938 8.160156 0.453125 6.527344 0.453125 4.507812 C 0.453125 2.492188 2.085938 0.859375 4.101562 0.859375 Z M 4.101562 0.859375 " clip-rule="nonzero"/></clipPath><clipPath id="bec4882fcc"><rect x="0" width="39" y="0" height="9"/></clipPath></defs><g clip-path="url(#137802f047)"><g clip-path="url(#06bd229678)"><g transform="matrix(1, 0, 0, 1, 6, 22)"><g clip-path="url(#864ae4b811)"><g clip-path="url(#770e2defef)"><g clip-path="url(#c211820532)"><path fill="#0080ff" d="M 0.679688 0.859375 L 38.535156 0.859375 L 38.535156 8.160156 L 0.679688 8.160156 Z M 0.679688 0.859375 " fill-opacity="1" fill-rule="nonzero"/></g></g></g></g></g></g><g clip-path="url(#f41d31a7f1)"><g clip-path="url(#e4532136b8)"><g transform="matrix(1, 0, 0, 1, 49, 22)"><g clip-path="url(#d21a8c2f5d)"><g clip-path="url(#d46209bf9d)"><g clip-path="url(#d9b92a7b23)"><path fill="#0080ff" d="M 0.40625 0.859375 L 38.261719 0.859375 L 38.261719 8.160156 L 0.40625 8.160156 Z M 0.40625 0.859375 " fill-opacity="1" fill-rule="nonzero"/></g></g></g></g></g></g><g clip-path="url(#89c9fdf1eb)"><g clip-path="url(#014cb12f9c)"><g transform="matrix(1, 0, 0, 1, 92, 22)"><g clip-path="url(#e84512d4c4)"><g clip-path="url(#1928b9c314)"><g clip-path="url(#5dcd34adcf)"><path fill="#0080ff" d="M 0.429688 0.859375 L 38.285156 0.859375 L 38.285156 8.160156 L 0.429688 8.160156 Z M 0.429688 0.859375 " fill-opacity="1" fill-rule="nonzero"/></g></g></g></g></g></g><g clip-path="url(#3e2109b875)"><g clip-path="url(#d415d90802)"><g transform="matrix(1, 0, 0, 1, 135, 22)"><g clip-path="url(#bec4882fcc)"><g clip-path="url(#d945334b16)"><g clip-path="url(#b744be8682)"><path fill="#0080ff" d="M 0.453125 0.859375 L 38.304688 0.859375 L 38.304688 8.160156 L 0.453125 8.160156 Z M 0.453125 0.859375 " fill-opacity="1" fill-rule="nonzero"/></g></g></g></g></g></g></svg>