<svg xmlns="http://www.w3.org/2000/svg" xmlns:xlink="http://www.w3.org/1999/xlink" width="240" zoomAndPan="magnify" viewBox="0 0 180 54" height="72" preserveAspectRatio="xMidYMid meet" version="1.0"><defs><clipPath id="28d86d5ce2"><path d="M 10.492188 39.003906 L 35.898438 39.003906 L 35.898438 42.6875 L 10.492188 42.6875 Z M 10.492188 39.003906 " clip-rule="nonzero"/></clipPath><clipPath id="1c0474f7fa"><path d="M 0.492188 0.00390625 L 25.898438 0.00390625 L 25.898438 3.6875 L 0.492188 3.6875 Z M 0.492188 0.00390625 " clip-rule="nonzero"/></clipPath><clipPath id="d7063c35aa"><rect x="0" width="26" y="0" height="4"/></clipPath><clipPath id="76301df1c6"><path d="M 54.996094 39.003906 L 80.402344 39.003906 L 80.402344 42.6875 L 54.996094 42.6875 Z M 54.996094 39.003906 " clip-rule="nonzero"/></clipPath><clipPath id="a0d3545553"><path d="M 0.996094 0.00390625 L 26.402344 0.00390625 L 26.402344 3.6875 L 0.996094 3.6875 Z M 0.996094 0.00390625 " clip-rule="nonzero"/></clipPath><clipPath id="8b95660ac9"><rect x="0" width="27" y="0" height="4"/></clipPath><clipPath id="3a8923e116"><path d="M 99.546875 39.003906 L 124.957031 39.003906 L 124.957031 42.6875 L 99.546875 42.6875 Z M 99.546875 39.003906 " clip-rule="nonzero"/></clipPath><clipPath id="9fa93ce510"><path d="M 0.546875 0.00390625 L 25.957031 0.00390625 L 25.957031 3.6875 L 0.546875 3.6875 Z M 0.546875 0.00390625 " clip-rule="nonzero"/></clipPath><clipPath id="60e915ad64"><rect x="0" width="26" y="0" height="4"/></clipPath><clipPath id="3fd7eba1ff"><path d="M 144.101562 39.003906 L 169.507812 39.003906 L 169.507812 42.6875 L 144.101562 42.6875 Z M 144.101562 39.003906 " clip-rule="nonzero"/></clipPath><clipPath id="68ce910a07"><path d="M 0.101562 0.00390625 L 25.507812 0.00390625 L 25.507812 3.6875 L 0.101562 3.6875 Z M 0.101562 0.00390625 " clip-rule="nonzero"/></clipPath><clipPath id="9f0495836f"><rect x="0" width="26" y="0" height="4"/></clipPath><clipPath id="bbdc44daaa"><path d="M 12.957031 10.332031 L 33.433594 10.332031 L 33.433594 30.804688 L 12.957031 30.804688 Z M 12.957031 10.332031 " clip-rule="nonzero"/></clipPath><clipPath id="37a75209a1"><path d="M 23.195312 10.332031 C 17.539062 10.332031 12.957031 14.914062 12.957031 20.570312 C 12.957031 26.222656 17.539062 30.804688 23.195312 30.804688 C 28.847656 30.804688 33.433594 26.222656 33.433594 20.570312 C 33.433594 14.914062 28.847656 10.332031 23.195312 10.332031 Z M 23.195312 10.332031 " clip-rule="nonzero"/></clipPath><clipPath id="059d2b76bb"><path d="M 0.957031 0.332031 L 21.433594 0.332031 L 21.433594 20.804688 L 0.957031 20.804688 Z M 0.957031 0.332031 " clip-rule="nonzero"/></clipPath><clipPath id="7002eeb07b"><path d="M 11.195312 0.332031 C 5.539062 0.332031 0.957031 4.914062 0.957031 10.570312 C 0.957031 16.222656 5.539062 20.804688 11.195312 20.804688 C 16.847656 20.804688 21.433594 16.222656 21.433594 10.570312 C 21.433594 4.914062 16.847656 0.332031 11.195312 0.332031 Z M 11.195312 0.332031 " clip-rule="nonzero"/></clipPath><clipPath id="add4569c2d"><rect x="0" width="22" y="0" height="21"/></clipPath><clipPath id="f5d98cc67d"><path d="M 57.460938 10.332031 L 77.9375 10.332031 L 77.9375 30.804688 L 57.460938 30.804688 Z M 57.460938 10.332031 " clip-rule="nonzero"/></clipPath><clipPath id="0c9c8183e2"><path d="M 67.699219 10.332031 C 62.042969 10.332031 57.460938 14.914062 57.460938 20.570312 C 57.460938 26.222656 62.042969 30.804688 67.699219 30.804688 C 73.351562 30.804688 77.9375 26.222656 77.9375 20.570312 C 77.9375 14.914062 73.351562 10.332031 67.699219 10.332031 Z M 67.699219 10.332031 " clip-rule="nonzero"/></clipPath><clipPath id="7cf544d6e0"><path d="M 0.460938 0.332031 L 20.9375 0.332031 L 20.9375 20.804688 L 0.460938 20.804688 Z M 0.460938 0.332031 " clip-rule="nonzero"/></clipPath><clipPath id="f3b4edfa4e"><path d="M 10.699219 0.332031 C 5.042969 0.332031 0.460938 4.914062 0.460938 10.570312 C 0.460938 16.222656 5.042969 20.804688 10.699219 20.804688 C 16.351562 20.804688 20.9375 16.222656 20.9375 10.570312 C 20.9375 4.914062 16.351562 0.332031 10.699219 0.332031 Z M 10.699219 0.332031 " clip-rule="nonzero"/></clipPath><clipPath id="af06081095"><rect x="0" width="21" y="0" height="21"/></clipPath><clipPath id="9f8285f085"><path d="M 102.015625 10.332031 L 122.488281 10.332031 L 122.488281 30.804688 L 102.015625 30.804688 Z M 102.015625 10.332031 " clip-rule="nonzero"/></clipPath><clipPath id="432e84eb5b"><path d="M 112.25 10.332031 C 106.597656 10.332031 102.015625 14.914062 102.015625 20.570312 C 102.015625 26.222656 106.597656 30.804688 112.25 30.804688 C 117.90625 30.804688 122.488281 26.222656 122.488281 20.570312 C 122.488281 14.914062 117.90625 10.332031 112.25 10.332031 Z M 112.25 10.332031 " clip-rule="nonzero"/></clipPath><clipPath id="64f3aba885"><path d="M 0.015625 0.332031 L 20.488281 0.332031 L 20.488281 20.804688 L 0.015625 20.804688 Z M 0.015625 0.332031 " clip-rule="nonzero"/></clipPath><clipPath id="c58db91cd7"><path d="M 10.25 0.332031 C 4.597656 0.332031 0.015625 4.914062 0.015625 10.570312 C 0.015625 16.222656 4.597656 20.804688 10.25 20.804688 C 15.90625 20.804688 20.488281 16.222656 20.488281 10.570312 C 20.488281 4.914062 15.90625 0.332031 10.25 0.332031 Z M 10.25 0.332031 " clip-rule="nonzero"/></clipPath><clipPath id="2f0ae70295"><rect x="0" width="21" y="0" height="21"/></clipPath><clipPath id="3771d7b70c"><path d="M 146.566406 10.332031 L 167.042969 10.332031 L 167.042969 30.804688 L 146.566406 30.804688 Z M 146.566406 10.332031 " clip-rule="nonzero"/></clipPath><clipPath id="87711fd405"><path d="M 156.804688 10.332031 C 151.152344 10.332031 146.566406 14.914062 146.566406 20.570312 C 146.566406 26.222656 151.152344 30.804688 156.804688 30.804688 C 162.460938 30.804688 167.042969 26.222656 167.042969 20.570312 C 167.042969 14.914062 162.460938 10.332031 156.804688 10.332031 Z M 156.804688 10.332031 " clip-rule="nonzero"/></clipPath><clipPath id="2ed303f393"><path d="M 0.566406 0.332031 L 21.042969 0.332031 L 21.042969 20.804688 L 0.566406 20.804688 Z M 0.566406 0.332031 " clip-rule="nonzero"/></clipPath><clipPath id="91470d5ee7"><path d="M 10.804688 0.332031 C 5.152344 0.332031 0.566406 4.914062 0.566406 10.570312 C 0.566406 16.222656 5.152344 20.804688 10.804688 20.804688 C 16.460938 20.804688 21.042969 16.222656 21.042969 10.570312 C 21.042969 4.914062 16.460938 0.332031 10.804688 0.332031 Z M 10.804688 0.332031 " clip-rule="nonzero"/></clipPath><clipPath id="e7b5f69aed"><rect x="0" width="22" y="0" height="21"/></clipPath></defs><g clip-path="url(#28d86d5ce2)"><g transform="matrix(1, 0, 0, 1, 10, 39)"><g clip-path="url(#d7063c35aa)"><g clip-path="url(#1c0474f7fa)"><path fill="#0080ff" d="M 0.492188 0.00390625 L 25.902344 0.00390625 L 25.902344 3.6875 L 0.492188 3.6875 Z M 0.492188 0.00390625 " fill-opacity="1" fill-rule="nonzero"/></g></g></g></g><g clip-path="url(#76301df1c6)"><g transform="matrix(1, 0, 0, 1, 54, 39)"><g clip-path="url(#8b95660ac9)"><g clip-path="url(#a0d3545553)"><path fill="#0080ff" d="M 0.996094 0.00390625 L 26.40625 0.00390625 L 26.40625 3.6875 L 0.996094 3.6875 Z M 0.996094 0.00390625 " fill-opacity="1" fill-rule="nonzero"/></g></g></g></g><g clip-path="url(#3a8923e116)"><g transform="matrix(1, 0, 0, 1, 99, 39)"><g clip-path="url(#60e915ad64)"><g clip-path="url(#9fa93ce510)"><path fill="#0080ff" d="M 0.546875 0.00390625 L 25.960938 0.00390625 L 25.960938 3.6875 L 0.546875 3.6875 Z M 0.546875 0.00390625 " fill-opacity="1" fill-rule="nonzero"/></g></g></g></g><g clip-path="url(#3fd7eba1ff)"><g transform="matrix(1, 0, 0, 1, 144, 39)"><g clip-path="url(#9f0495836f)"><g clip-path="url(#68ce910a07)"><path fill="#0080ff" d="M 0.101562 0.00390625 L 25.515625 0.00390625 L 25.515625 3.6875 L 0.101562 3.6875 Z M 0.101562 0.00390625 " fill-opacity="1" fill-rule="nonzero"/></g></g></g></g><g clip-path="url(#bbdc44daaa)"><g clip-path="url(#37a75209a1)"><g transform="matrix(1, 0, 0, 1, 12, 10)"><g clip-path="url(#add4569c2d)"><g clip-path="url(#059d2b76bb)"><g clip-path="url(#7002eeb07b)"><path fill="#0080ff" d="M 0.957031 0.332031 L 21.433594 0.332031 L 21.433594 20.804688 L 0.957031 20.804688 Z M 0.957031 0.332031 " fill-opacity="1" fill-rule="nonzero"/></g></g></g></g></g></g><g clip-path="url(#f5d98cc67d)"><g clip-path="url(#0c9c8183e2)"><g transform="matrix(1, 0, 0, 1, 57, 10)"><g clip-path="url(#af06081095)"><g clip-path="url(#7cf544d6e0)"><g clip-path="url(#f3b4edfa4e)"><path fill="#0080ff" d="M 0.460938 0.332031 L 20.9375 0.332031 L 20.9375 20.804688 L 0.460938 20.804688 Z M 0.460938 0.332031 " fill-opacity="1" fill-rule="nonzero"/></g></g></g></g></g></g><g clip-path="url(#9f8285f085)"><g clip-path="url(#432e84eb5b)"><g transform="matrix(1, 0, 0, 1, 102, 10)"><g clip-path="url(#2f0ae70295)"><g clip-path="url(#64f3aba885)"><g clip-path="url(#c58db91cd7)"><path fill="#0080ff" d="M 0.015625 0.332031 L 20.488281 0.332031 L 20.488281 20.804688 L 0.015625 20.804688 Z M 0.015625 0.332031 " fill-opacity="1" fill-rule="nonzero"/></g></g></g></g></g></g><g clip-path="url(#3771d7b70c)"><g clip-path="url(#87711fd405)"><g transform="matrix(1, 0, 0, 1, 146, 10)"><g clip-path="url(#e7b5f69aed)"><g clip-path="url(#2ed303f393)"><g clip-path="url(#91470d5ee7)"><path fill="#0080ff" d="M 0.566406 0.332031 L 21.042969 0.332031 L 21.042969 20.804688 L 0.566406 20.804688 Z M 0.566406 0.332031 " fill-opacity="1" fill-rule="nonzero"/></g></g></g></g></g></g></svg>