<svg xmlns="http://www.w3.org/2000/svg" xmlns:xlink="http://www.w3.org/1999/xlink" width="240" zoomAndPan="magnify" viewBox="0 0 180 54" height="72" preserveAspectRatio="xMidYMid meet" version="1.0"><defs><clipPath id="10c39f5fc8"><path d="M 9.871094 17.035156 L 29 17.035156 L 29 36.179688 L 9.871094 36.179688 Z M 9.871094 17.035156 " clip-rule="nonzero"/></clipPath><clipPath id="8709cc1d16"><path d="M 9.871094 23 L 29 23 L 29 36.179688 L 9.871094 36.179688 Z M 9.871094 23 " clip-rule="nonzero"/></clipPath><clipPath id="f1eafe79a3"><path d="M 57.175781 16.988281 L 76.320312 16.988281 L 76.320312 36 L 57.175781 36 Z M 57.175781 16.988281 " clip-rule="nonzero"/></clipPath><clipPath id="8e33219770"><path d="M 57.175781 23 L 76.320312 23 L 76.320312 36 L 57.175781 36 Z M 57.175781 23 " clip-rule="nonzero"/></clipPath><clipPath id="00e8f03f0d"><path d="M 104.152344 17.035156 L 123.300781 17.035156 L 123.300781 36.179688 L 104.152344 36.179688 Z M 104.152344 17.035156 " clip-rule="nonzero"/></clipPath><clipPath id="98587a0cad"><path d="M 104.152344 23 L 123.300781 23 L 123.300781 36.179688 L 104.152344 36.179688 Z M 104.152344 23 " clip-rule="nonzero"/></clipPath><clipPath id="42bfe56154"><path d="M 151.132812 16.988281 L 170.277344 16.988281 L 170.277344 36 L 151.132812 36 Z M 151.132812 16.988281 " clip-rule="nonzero"/></clipPath><clipPath id="e1893e8551"><path d="M 151.132812 23 L 170.277344 23 L 170.277344 36 L 151.132812 36 Z M 151.132812 23 " clip-rule="nonzero"/></clipPath></defs><g clip-path="url(#10c39f5fc8)"><path fill="#dfe8f4" d="M 11.867188 17.035156 L 26.871094 17.035156 C 27.136719 17.035156 27.390625 17.085938 27.636719 17.183594 C 27.878906 17.285156 28.097656 17.429688 28.285156 17.617188 C 28.46875 17.804688 28.613281 18.019531 28.714844 18.265625 C 28.816406 18.507812 28.867188 18.765625 28.867188 19.027344 L 28.867188 34.035156 C 28.867188 34.300781 28.816406 34.554688 28.714844 34.796875 C 28.613281 35.042969 28.46875 35.257812 28.285156 35.445312 C 28.097656 35.632812 27.878906 35.777344 27.636719 35.878906 C 27.390625 35.980469 27.136719 36.03125 26.871094 36.03125 L 11.867188 36.03125 C 11.601562 36.03125 11.347656 35.980469 11.101562 35.878906 C 10.859375 35.777344 10.644531 35.632812 10.457031 35.445312 C 10.269531 35.257812 10.125 35.042969 10.023438 34.796875 C 9.921875 34.554688 9.871094 34.300781 9.871094 34.035156 L 9.871094 19.027344 C 9.871094 18.765625 9.921875 18.507812 10.023438 18.265625 C 10.125 18.019531 10.269531 17.804688 10.457031 17.617188 C 10.644531 17.429688 10.859375 17.285156 11.101562 17.183594 C 11.347656 17.085938 11.601562 17.035156 11.867188 17.035156 Z M 11.867188 17.035156 " fill-opacity="1" fill-rule="nonzero"/></g><g clip-path="url(#8709cc1d16)"><path fill="#0080ff" d="M 28.867188 34.050781 L 28.867188 29.511719 L 27.078125 27.71875 C 26.886719 27.527344 26.667969 27.378906 26.417969 27.277344 C 26.167969 27.175781 25.910156 27.121094 25.636719 27.121094 C 25.367188 27.121094 25.109375 27.175781 24.859375 27.277344 C 24.609375 27.378906 24.390625 27.527344 24.199219 27.71875 C 24.007812 27.910156 23.785156 28.058594 23.535156 28.160156 C 23.285156 28.265625 23.027344 28.316406 22.753906 28.316406 C 22.484375 28.316406 22.222656 28.265625 21.976562 28.160156 C 21.726562 28.058594 21.503906 27.910156 21.3125 27.71875 L 17.808594 24.214844 C 17.621094 24.027344 17.398438 23.878906 17.148438 23.773438 C 16.898438 23.671875 16.640625 23.621094 16.371094 23.621094 C 16.101562 23.621094 15.839844 23.671875 15.589844 23.773438 C 15.339844 23.878906 15.121094 24.027344 14.929688 24.214844 L 9.871094 29.277344 L 9.871094 34.050781 C 9.871094 34.3125 9.921875 34.566406 10.023438 34.808594 C 10.121094 35.050781 10.265625 35.265625 10.449219 35.449219 C 10.636719 35.636719 10.851562 35.777344 11.09375 35.878906 C 11.335938 35.980469 11.589844 36.03125 11.851562 36.03125 L 26.890625 36.03125 C 27.152344 36.03125 27.402344 35.980469 27.644531 35.878906 C 27.886719 35.777344 28.101562 35.636719 28.289062 35.449219 C 28.472656 35.265625 28.617188 35.050781 28.71875 34.808594 C 28.816406 34.566406 28.867188 34.3125 28.867188 34.050781 Z M 28.867188 34.050781 " fill-opacity="1" fill-rule="nonzero"/></g><path fill="#ffffff" d="M 25.101562 22.480469 C 25.101562 22.722656 25.054688 22.960938 24.960938 23.1875 C 24.867188 23.414062 24.730469 23.613281 24.558594 23.785156 C 24.386719 23.960938 24.183594 24.09375 23.960938 24.1875 C 23.734375 24.28125 23.496094 24.328125 23.25 24.328125 C 23.007812 24.328125 22.769531 24.28125 22.542969 24.1875 C 22.316406 24.09375 22.117188 23.960938 21.945312 23.785156 C 21.773438 23.613281 21.636719 23.414062 21.542969 23.1875 C 21.449219 22.960938 21.402344 22.722656 21.402344 22.480469 C 21.402344 22.234375 21.449219 22 21.542969 21.773438 C 21.636719 21.546875 21.773438 21.34375 21.945312 21.171875 C 22.117188 21 22.316406 20.867188 22.542969 20.773438 C 22.769531 20.679688 23.007812 20.632812 23.25 20.632812 C 23.496094 20.632812 23.734375 20.679688 23.960938 20.773438 C 24.183594 20.867188 24.386719 21 24.558594 21.171875 C 24.730469 21.34375 24.867188 21.546875 24.960938 21.773438 C 25.054688 22 25.101562 22.234375 25.101562 22.480469 Z M 25.101562 22.480469 " fill-opacity="1" fill-rule="nonzero"/><g clip-path="url(#f1eafe79a3)"><path fill="#dfe8f4" d="M 59.171875 16.988281 L 74.175781 16.988281 C 74.441406 16.988281 74.695312 17.039062 74.941406 17.140625 C 75.183594 17.242188 75.402344 17.386719 75.585938 17.574219 C 75.773438 17.757812 75.917969 17.976562 76.019531 18.21875 C 76.121094 18.464844 76.171875 18.71875 76.171875 18.984375 L 76.171875 33.988281 C 76.171875 34.253906 76.121094 34.507812 76.019531 34.753906 C 75.917969 34.996094 75.773438 35.210938 75.585938 35.398438 C 75.402344 35.585938 75.183594 35.730469 74.941406 35.832031 C 74.695312 35.933594 74.441406 35.984375 74.175781 35.984375 L 59.171875 35.984375 C 58.90625 35.984375 58.652344 35.933594 58.40625 35.832031 C 58.164062 35.730469 57.945312 35.585938 57.761719 35.398438 C 57.574219 35.210938 57.429688 34.996094 57.328125 34.753906 C 57.226562 34.507812 57.175781 34.253906 57.175781 33.988281 L 57.175781 18.984375 C 57.175781 18.71875 57.226562 18.464844 57.328125 18.21875 C 57.429688 17.976562 57.574219 17.757812 57.761719 17.574219 C 57.945312 17.386719 58.164062 17.242188 58.40625 17.140625 C 58.652344 17.039062 58.90625 16.988281 59.171875 16.988281 Z M 59.171875 16.988281 " fill-opacity="1" fill-rule="nonzero"/></g><g clip-path="url(#8e33219770)"><path fill="#0080ff" d="M 76.171875 34.003906 L 76.171875 29.464844 L 74.382812 27.671875 C 74.191406 27.484375 73.972656 27.335938 73.722656 27.230469 C 73.472656 27.128906 73.210938 27.078125 72.941406 27.078125 C 72.671875 27.078125 72.414062 27.128906 72.164062 27.230469 C 71.914062 27.335938 71.691406 27.484375 71.5 27.671875 C 71.308594 27.863281 71.089844 28.011719 70.839844 28.113281 C 70.589844 28.21875 70.328125 28.269531 70.058594 28.269531 C 69.789062 28.269531 69.527344 28.21875 69.277344 28.113281 C 69.027344 28.011719 68.808594 27.863281 68.617188 27.671875 L 65.113281 24.171875 C 64.921875 23.980469 64.703125 23.832031 64.453125 23.730469 C 64.203125 23.625 63.945312 23.574219 63.675781 23.574219 C 63.402344 23.574219 63.144531 23.625 62.894531 23.730469 C 62.644531 23.832031 62.425781 23.980469 62.234375 24.171875 L 57.175781 29.234375 L 57.175781 34.003906 C 57.175781 34.269531 57.226562 34.519531 57.328125 34.761719 C 57.425781 35.003906 57.570312 35.21875 57.753906 35.40625 C 57.941406 35.589844 58.15625 35.734375 58.398438 35.832031 C 58.640625 35.933594 58.890625 35.984375 59.15625 35.984375 L 74.191406 35.984375 C 74.457031 35.984375 74.707031 35.933594 74.949219 35.832031 C 75.191406 35.734375 75.40625 35.589844 75.59375 35.40625 C 75.777344 35.21875 75.921875 35.003906 76.019531 34.761719 C 76.121094 34.519531 76.171875 34.269531 76.171875 34.003906 Z M 76.171875 34.003906 " fill-opacity="1" fill-rule="nonzero"/></g><path fill="#ffffff" d="M 72.402344 22.433594 C 72.402344 22.679688 72.355469 22.914062 72.261719 23.140625 C 72.167969 23.367188 72.035156 23.566406 71.863281 23.742188 C 71.691406 23.914062 71.488281 24.046875 71.261719 24.140625 C 71.035156 24.234375 70.800781 24.28125 70.554688 24.28125 C 70.3125 24.28125 70.074219 24.234375 69.847656 24.140625 C 69.621094 24.046875 69.421875 23.914062 69.25 23.742188 C 69.074219 23.566406 68.941406 23.367188 68.847656 23.140625 C 68.753906 22.914062 68.707031 22.679688 68.707031 22.433594 C 68.707031 22.1875 68.753906 21.953125 68.847656 21.726562 C 68.941406 21.5 69.074219 21.300781 69.25 21.125 C 69.421875 20.953125 69.621094 20.820312 69.847656 20.726562 C 70.074219 20.632812 70.3125 20.585938 70.554688 20.585938 C 70.800781 20.585938 71.035156 20.632812 71.261719 20.726562 C 71.488281 20.820312 71.691406 20.953125 71.863281 21.125 C 72.035156 21.300781 72.167969 21.5 72.261719 21.726562 C 72.355469 21.953125 72.402344 22.1875 72.402344 22.433594 Z M 72.402344 22.433594 " fill-opacity="1" fill-rule="nonzero"/><g clip-path="url(#00e8f03f0d)"><path fill="#dfe8f4" d="M 106.148438 17.035156 L 121.15625 17.035156 C 121.417969 17.035156 121.675781 17.085938 121.917969 17.183594 C 122.164062 17.285156 122.378906 17.429688 122.566406 17.617188 C 122.753906 17.804688 122.898438 18.019531 122.996094 18.265625 C 123.097656 18.507812 123.148438 18.765625 123.148438 19.027344 L 123.148438 34.035156 C 123.148438 34.300781 123.097656 34.554688 122.996094 34.796875 C 122.898438 35.042969 122.753906 35.257812 122.566406 35.445312 C 122.378906 35.632812 122.164062 35.777344 121.917969 35.878906 C 121.675781 35.980469 121.417969 36.03125 121.15625 36.03125 L 106.148438 36.03125 C 105.882812 36.03125 105.628906 35.980469 105.386719 35.878906 C 105.140625 35.777344 104.925781 35.632812 104.738281 35.445312 C 104.550781 35.257812 104.40625 35.042969 104.304688 34.796875 C 104.203125 34.554688 104.152344 34.300781 104.152344 34.035156 L 104.152344 19.027344 C 104.152344 18.765625 104.203125 18.507812 104.304688 18.265625 C 104.40625 18.019531 104.550781 17.804688 104.738281 17.617188 C 104.925781 17.429688 105.140625 17.285156 105.386719 17.183594 C 105.628906 17.085938 105.882812 17.035156 106.148438 17.035156 Z M 106.148438 17.035156 " fill-opacity="1" fill-rule="nonzero"/></g><g clip-path="url(#98587a0cad)"><path fill="#0080ff" d="M 123.148438 34.050781 L 123.148438 29.511719 L 121.359375 27.71875 C 121.167969 27.527344 120.949219 27.378906 120.699219 27.277344 C 120.449219 27.175781 120.191406 27.121094 119.921875 27.121094 C 119.648438 27.121094 119.390625 27.175781 119.140625 27.277344 C 118.890625 27.378906 118.671875 27.527344 118.480469 27.71875 C 118.289062 27.910156 118.066406 28.058594 117.816406 28.160156 C 117.566406 28.265625 117.308594 28.316406 117.039062 28.316406 C 116.765625 28.316406 116.507812 28.265625 116.257812 28.160156 C 116.007812 28.058594 115.785156 27.910156 115.59375 27.71875 L 112.09375 24.214844 C 111.902344 24.027344 111.679688 23.878906 111.429688 23.773438 C 111.183594 23.671875 110.921875 23.621094 110.652344 23.621094 C 110.382812 23.621094 110.121094 23.671875 109.871094 23.773438 C 109.621094 23.878906 109.402344 24.027344 109.210938 24.214844 L 104.152344 29.277344 L 104.152344 34.050781 C 104.152344 34.3125 104.203125 34.566406 104.304688 34.808594 C 104.40625 35.050781 104.546875 35.265625 104.734375 35.449219 C 104.917969 35.636719 105.132812 35.777344 105.375 35.878906 C 105.617188 35.980469 105.871094 36.03125 106.132812 36.03125 L 121.171875 36.03125 C 121.433594 36.03125 121.6875 35.980469 121.929688 35.878906 C 122.171875 35.777344 122.382812 35.636719 122.570312 35.449219 C 122.753906 35.265625 122.898438 35.050781 123 34.808594 C 123.097656 34.566406 123.148438 34.3125 123.148438 34.050781 Z M 123.148438 34.050781 " fill-opacity="1" fill-rule="nonzero"/></g><path fill="#ffffff" d="M 119.382812 22.480469 C 119.382812 22.722656 119.335938 22.960938 119.242188 23.1875 C 119.148438 23.414062 119.015625 23.613281 118.839844 23.785156 C 118.667969 23.960938 118.46875 24.09375 118.242188 24.1875 C 118.015625 24.28125 117.777344 24.328125 117.535156 24.328125 C 117.289062 24.328125 117.054688 24.28125 116.828125 24.1875 C 116.601562 24.09375 116.402344 23.960938 116.226562 23.785156 C 116.054688 23.613281 115.921875 23.414062 115.828125 23.1875 C 115.734375 22.960938 115.6875 22.722656 115.6875 22.480469 C 115.6875 22.234375 115.734375 22 115.828125 21.773438 C 115.921875 21.546875 116.054688 21.34375 116.226562 21.171875 C 116.402344 21 116.601562 20.867188 116.828125 20.773438 C 117.054688 20.679688 117.289062 20.632812 117.535156 20.632812 C 117.777344 20.632812 118.015625 20.679688 118.242188 20.773438 C 118.46875 20.867188 118.667969 21 118.839844 21.171875 C 119.015625 21.34375 119.148438 21.546875 119.242188 21.773438 C 119.335938 22 119.382812 22.234375 119.382812 22.480469 Z M 119.382812 22.480469 " fill-opacity="1" fill-rule="nonzero"/><g clip-path="url(#42bfe56154)"><path fill="#dfe8f4" d="M 153.125 16.988281 L 168.132812 16.988281 C 168.398438 16.988281 168.652344 17.039062 168.898438 17.140625 C 169.140625 17.242188 169.355469 17.386719 169.542969 17.574219 C 169.730469 17.757812 169.875 17.976562 169.976562 18.21875 C 170.078125 18.464844 170.128906 18.71875 170.128906 18.984375 L 170.128906 33.988281 C 170.128906 34.253906 170.078125 34.507812 169.976562 34.753906 C 169.875 34.996094 169.730469 35.210938 169.542969 35.398438 C 169.355469 35.585938 169.140625 35.730469 168.898438 35.832031 C 168.652344 35.933594 168.398438 35.984375 168.132812 35.984375 L 153.125 35.984375 C 152.863281 35.984375 152.609375 35.933594 152.363281 35.832031 C 152.117188 35.730469 151.902344 35.585938 151.714844 35.398438 C 151.527344 35.210938 151.386719 34.996094 151.285156 34.753906 C 151.183594 34.507812 151.132812 34.253906 151.132812 33.988281 L 151.132812 18.984375 C 151.132812 18.71875 151.183594 18.464844 151.285156 18.21875 C 151.386719 17.976562 151.527344 17.757812 151.714844 17.574219 C 151.902344 17.386719 152.117188 17.242188 152.363281 17.140625 C 152.609375 17.039062 152.863281 16.988281 153.125 16.988281 Z M 153.125 16.988281 " fill-opacity="1" fill-rule="nonzero"/></g><g clip-path="url(#e1893e8551)"><path fill="#0080ff" d="M 170.128906 34.003906 L 170.128906 29.464844 L 168.339844 27.671875 C 168.148438 27.484375 167.929688 27.335938 167.679688 27.230469 C 167.429688 27.128906 167.167969 27.078125 166.898438 27.078125 C 166.628906 27.078125 166.367188 27.128906 166.117188 27.230469 C 165.871094 27.335938 165.648438 27.484375 165.457031 27.671875 C 165.265625 27.863281 165.046875 28.011719 164.796875 28.113281 C 164.546875 28.21875 164.285156 28.269531 164.015625 28.269531 C 163.746094 28.269531 163.484375 28.21875 163.234375 28.113281 C 162.984375 28.011719 162.765625 27.863281 162.574219 27.671875 L 159.070312 24.171875 C 158.878906 23.980469 158.660156 23.832031 158.410156 23.730469 C 158.160156 23.625 157.898438 23.574219 157.628906 23.574219 C 157.359375 23.574219 157.101562 23.625 156.851562 23.730469 C 156.601562 23.832031 156.378906 23.980469 156.191406 24.171875 L 151.132812 29.234375 L 151.132812 34.003906 C 151.132812 34.269531 151.183594 34.519531 151.28125 34.761719 C 151.382812 35.003906 151.527344 35.21875 151.710938 35.40625 C 151.898438 35.589844 152.109375 35.734375 152.355469 35.832031 C 152.597656 35.933594 152.847656 35.984375 153.109375 35.984375 L 168.148438 35.984375 C 168.410156 35.984375 168.664062 35.933594 168.90625 35.832031 C 169.148438 35.734375 169.363281 35.589844 169.546875 35.40625 C 169.734375 35.21875 169.875 35.003906 169.976562 34.761719 C 170.078125 34.519531 170.128906 34.269531 170.128906 34.003906 Z M 170.128906 34.003906 " fill-opacity="1" fill-rule="nonzero"/></g><path fill="#ffffff" d="M 166.359375 22.433594 C 166.359375 22.679688 166.3125 22.914062 166.21875 23.140625 C 166.125 23.367188 165.992188 23.566406 165.820312 23.742188 C 165.644531 23.914062 165.445312 24.046875 165.21875 24.140625 C 164.992188 24.234375 164.757812 24.28125 164.511719 24.28125 C 164.265625 24.28125 164.03125 24.234375 163.804688 24.140625 C 163.578125 24.046875 163.378906 23.914062 163.207031 23.742188 C 163.03125 23.566406 162.898438 23.367188 162.804688 23.140625 C 162.710938 22.914062 162.664062 22.679688 162.664062 22.433594 C 162.664062 22.1875 162.710938 21.953125 162.804688 21.726562 C 162.898438 21.5 163.03125 21.300781 163.207031 21.125 C 163.378906 20.953125 163.578125 20.820312 163.804688 20.726562 C 164.03125 20.632812 164.265625 20.585938 164.511719 20.585938 C 164.757812 20.585938 164.992188 20.632812 165.21875 20.726562 C 165.445312 20.820312 165.644531 20.953125 165.820312 21.125 C 165.992188 21.300781 166.125 21.5 166.21875 21.726562 C 166.3125 21.953125 166.359375 22.1875 166.359375 22.433594 Z M 166.359375 22.433594 " fill-opacity="1" fill-rule="nonzero"/></svg>