<svg xmlns="http://www.w3.org/2000/svg" xmlns:xlink="http://www.w3.org/1999/xlink" width="240" zoomAndPan="magnify" viewBox="0 0 180 54" height="72" preserveAspectRatio="xMidYMid meet" version="1.0"><defs><clipPath id="46c22f7f18"><path d="M 10.492188 39.875 L 35.898438 39.875 L 35.898438 43.558594 L 10.492188 43.558594 Z M 10.492188 39.875 " clip-rule="nonzero"/></clipPath><clipPath id="fa66e54cf9"><path d="M 0.492188 0.875 L 25.898438 0.875 L 25.898438 4.558594 L 0.492188 4.558594 Z M 0.492188 0.875 " clip-rule="nonzero"/></clipPath><clipPath id="a9693da73c"><rect x="0" width="26" y="0" height="5"/></clipPath><clipPath id="63ef3c0a8b"><path d="M 54.996094 39.875 L 80.402344 39.875 L 80.402344 43.558594 L 54.996094 43.558594 Z M 54.996094 39.875 " clip-rule="nonzero"/></clipPath><clipPath id="ddb371f495"><path d="M 0.996094 0.875 L 26.402344 0.875 L 26.402344 4.558594 L 0.996094 4.558594 Z M 0.996094 0.875 " clip-rule="nonzero"/></clipPath><clipPath id="7a642fd861"><rect x="0" width="27" y="0" height="5"/></clipPath><clipPath id="d2a89324c7"><path d="M 99.546875 39.875 L 124.957031 39.875 L 124.957031 43.558594 L 99.546875 43.558594 Z M 99.546875 39.875 " clip-rule="nonzero"/></clipPath><clipPath id="48127216e5"><path d="M 0.546875 0.875 L 25.957031 0.875 L 25.957031 4.558594 L 0.546875 4.558594 Z M 0.546875 0.875 " clip-rule="nonzero"/></clipPath><clipPath id="e70bb5628d"><rect x="0" width="26" y="0" height="5"/></clipPath><clipPath id="e71b4529f0"><path d="M 144.101562 39.875 L 169.507812 39.875 L 169.507812 43.558594 L 144.101562 43.558594 Z M 144.101562 39.875 " clip-rule="nonzero"/></clipPath><clipPath id="b4fe940f1a"><path d="M 0.101562 0.875 L 25.507812 0.875 L 25.507812 4.558594 L 0.101562 4.558594 Z M 0.101562 0.875 " clip-rule="nonzero"/></clipPath><clipPath id="1154267da5"><rect x="0" width="26" y="0" height="5"/></clipPath><clipPath id="65c60af5e5"><path d="M 12.589844 9.460938 L 33.945312 9.460938 L 33.945312 30.8125 L 12.589844 30.8125 Z M 12.589844 9.460938 " clip-rule="nonzero"/></clipPath><clipPath id="445523782a"><path d="M 12.589844 16 L 33.945312 16 L 33.945312 30.8125 L 12.589844 30.8125 Z M 12.589844 16 " clip-rule="nonzero"/></clipPath><clipPath id="3e9b1936bc"><path d="M 57.09375 9.460938 L 78.449219 9.460938 L 78.449219 30.8125 L 57.09375 30.8125 Z M 57.09375 9.460938 " clip-rule="nonzero"/></clipPath><clipPath id="3e85a149eb"><path d="M 57.09375 16 L 78.449219 16 L 78.449219 30.8125 L 57.09375 30.8125 Z M 57.09375 16 " clip-rule="nonzero"/></clipPath><clipPath id="8eeac0404a"><path d="M 101.648438 9.460938 L 123 9.460938 L 123 30.8125 L 101.648438 30.8125 Z M 101.648438 9.460938 " clip-rule="nonzero"/></clipPath><clipPath id="7259e26983"><path d="M 101.648438 16 L 123 16 L 123 30.8125 L 101.648438 30.8125 Z M 101.648438 16 " clip-rule="nonzero"/></clipPath><clipPath id="6308ee4cf6"><path d="M 146.203125 9.460938 L 167.554688 9.460938 L 167.554688 30.8125 L 146.203125 30.8125 Z M 146.203125 9.460938 " clip-rule="nonzero"/></clipPath><clipPath id="c4d8136554"><path d="M 146.203125 16 L 167.554688 16 L 167.554688 30.8125 L 146.203125 30.8125 Z M 146.203125 16 " clip-rule="nonzero"/></clipPath></defs><g clip-path="url(#46c22f7f18)"><g transform="matrix(1, 0, 0, 1, 10, 39)"><g clip-path="url(#a9693da73c)"><g clip-path="url(#fa66e54cf9)"><path fill="#0080ff" d="M 0.492188 0.875 L 25.902344 0.875 L 25.902344 4.558594 L 0.492188 4.558594 Z M 0.492188 0.875 " fill-opacity="1" fill-rule="nonzero"/></g></g></g></g><g clip-path="url(#63ef3c0a8b)"><g transform="matrix(1, 0, 0, 1, 54, 39)"><g clip-path="url(#7a642fd861)"><g clip-path="url(#ddb371f495)"><path fill="#0080ff" d="M 0.996094 0.875 L 26.40625 0.875 L 26.40625 4.558594 L 0.996094 4.558594 Z M 0.996094 0.875 " fill-opacity="1" fill-rule="nonzero"/></g></g></g></g><g clip-path="url(#d2a89324c7)"><g transform="matrix(1, 0, 0, 1, 99, 39)"><g clip-path="url(#e70bb5628d)"><g clip-path="url(#48127216e5)"><path fill="#0080ff" d="M 0.546875 0.875 L 25.960938 0.875 L 25.960938 4.558594 L 0.546875 4.558594 Z M 0.546875 0.875 " fill-opacity="1" fill-rule="nonzero"/></g></g></g></g><g clip-path="url(#e71b4529f0)"><g transform="matrix(1, 0, 0, 1, 144, 39)"><g clip-path="url(#1154267da5)"><g clip-path="url(#b4fe940f1a)"><path fill="#0080ff" d="M 0.101562 0.875 L 25.515625 0.875 L 25.515625 4.558594 L 0.101562 4.558594 Z M 0.101562 0.875 " fill-opacity="1" fill-rule="nonzero"/></g></g></g></g><g clip-path="url(#65c60af5e5)"><path fill="#dfe8f4" d="M 14.816406 9.460938 L 31.570312 9.460938 C 31.863281 9.460938 32.148438 9.515625 32.421875 9.628906 C 32.695312 9.742188 32.933594 9.902344 33.144531 10.113281 C 33.351562 10.320312 33.511719 10.5625 33.625 10.835938 C 33.738281 11.105469 33.796875 11.390625 33.796875 11.6875 L 33.796875 28.4375 C 33.796875 28.734375 33.738281 29.019531 33.625 29.289062 C 33.511719 29.5625 33.351562 29.804688 33.144531 30.011719 C 32.933594 30.222656 32.695312 30.382812 32.421875 30.496094 C 32.148438 30.609375 31.863281 30.664062 31.570312 30.664062 L 14.816406 30.664062 C 14.523438 30.664062 14.238281 30.609375 13.964844 30.496094 C 13.691406 30.382812 13.453125 30.222656 13.242188 30.011719 C 13.035156 29.804688 12.875 29.5625 12.761719 29.289062 C 12.648438 29.019531 12.589844 28.734375 12.589844 28.4375 L 12.589844 11.6875 C 12.589844 11.390625 12.648438 11.105469 12.761719 10.835938 C 12.875 10.5625 13.035156 10.320312 13.242188 10.113281 C 13.453125 9.902344 13.691406 9.742188 13.964844 9.628906 C 14.238281 9.515625 14.523438 9.460938 14.816406 9.460938 Z M 14.816406 9.460938 " fill-opacity="1" fill-rule="nonzero"/></g><g clip-path="url(#445523782a)"><path fill="#0080ff" d="M 33.796875 28.457031 L 33.796875 23.390625 L 31.800781 21.386719 C 31.585938 21.175781 31.339844 21.011719 31.0625 20.894531 C 30.78125 20.78125 30.492188 20.722656 30.191406 20.722656 C 29.890625 20.722656 29.597656 20.78125 29.320312 20.894531 C 29.042969 21.011719 28.796875 21.175781 28.582031 21.386719 C 28.371094 21.601562 28.125 21.765625 27.84375 21.878906 C 27.566406 21.996094 27.273438 22.054688 26.972656 22.054688 C 26.671875 22.054688 26.378906 21.996094 26.101562 21.878906 C 25.824219 21.765625 25.578125 21.601562 25.363281 21.386719 L 21.453125 17.476562 C 21.238281 17.265625 20.992188 17.101562 20.714844 16.984375 C 20.4375 16.871094 20.144531 16.8125 19.84375 16.8125 C 19.542969 16.8125 19.253906 16.871094 18.976562 16.984375 C 18.695312 17.101562 18.449219 17.265625 18.238281 17.476562 L 12.589844 23.128906 L 12.589844 28.457031 C 12.589844 28.75 12.648438 29.03125 12.757812 29.300781 C 12.871094 29.570312 13.03125 29.8125 13.238281 30.019531 C 13.445312 30.226562 13.683594 30.382812 13.953125 30.496094 C 14.226562 30.609375 14.507812 30.664062 14.800781 30.664062 L 31.585938 30.664062 C 31.878906 30.664062 32.160156 30.609375 32.433594 30.496094 C 32.703125 30.382812 32.941406 30.226562 33.148438 30.019531 C 33.355469 29.8125 33.515625 29.570312 33.628906 29.300781 C 33.738281 29.03125 33.796875 28.75 33.796875 28.457031 Z M 33.796875 28.457031 " fill-opacity="1" fill-rule="nonzero"/></g><path fill="#ffffff" d="M 29.589844 15.539062 C 29.589844 15.8125 29.539062 16.074219 29.433594 16.328125 C 29.328125 16.582031 29.179688 16.804688 28.984375 16.996094 C 28.792969 17.191406 28.570312 17.339844 28.316406 17.445312 C 28.0625 17.550781 27.800781 17.601562 27.527344 17.601562 C 27.253906 17.601562 26.992188 17.550781 26.738281 17.445312 C 26.484375 17.339844 26.261719 17.191406 26.070312 16.996094 C 25.875 16.804688 25.726562 16.582031 25.621094 16.328125 C 25.515625 16.074219 25.464844 15.8125 25.464844 15.539062 C 25.464844 15.265625 25.515625 15 25.621094 14.75 C 25.726562 14.496094 25.875 14.273438 26.070312 14.078125 C 26.261719 13.886719 26.484375 13.738281 26.738281 13.632812 C 26.992188 13.527344 27.253906 13.476562 27.527344 13.476562 C 27.800781 13.476562 28.0625 13.527344 28.316406 13.632812 C 28.570312 13.738281 28.792969 13.886719 28.984375 14.078125 C 29.179688 14.273438 29.328125 14.496094 29.433594 14.75 C 29.539062 15 29.589844 15.265625 29.589844 15.539062 Z M 29.589844 15.539062 " fill-opacity="1" fill-rule="nonzero"/><g clip-path="url(#3e9b1936bc)"><path fill="#dfe8f4" d="M 59.320312 9.460938 L 76.074219 9.460938 C 76.367188 9.460938 76.652344 9.515625 76.925781 9.628906 C 77.199219 9.742188 77.4375 9.902344 77.648438 10.113281 C 77.855469 10.320312 78.015625 10.5625 78.128906 10.835938 C 78.242188 11.105469 78.300781 11.390625 78.300781 11.6875 L 78.300781 28.4375 C 78.300781 28.734375 78.242188 29.019531 78.128906 29.289062 C 78.015625 29.5625 77.855469 29.804688 77.648438 30.011719 C 77.4375 30.222656 77.199219 30.382812 76.925781 30.496094 C 76.652344 30.609375 76.367188 30.664062 76.074219 30.664062 L 59.320312 30.664062 C 59.027344 30.664062 58.742188 30.609375 58.46875 30.496094 C 58.195312 30.382812 57.957031 30.222656 57.746094 30.011719 C 57.539062 29.804688 57.378906 29.5625 57.265625 29.289062 C 57.152344 29.019531 57.09375 28.734375 57.09375 28.4375 L 57.09375 11.6875 C 57.09375 11.390625 57.152344 11.105469 57.265625 10.835938 C 57.378906 10.5625 57.539062 10.320312 57.746094 10.113281 C 57.957031 9.902344 58.195312 9.742188 58.46875 9.628906 C 58.742188 9.515625 59.027344 9.460938 59.320312 9.460938 Z M 59.320312 9.460938 " fill-opacity="1" fill-rule="nonzero"/></g><g clip-path="url(#3e85a149eb)"><path fill="#0080ff" d="M 78.300781 28.457031 L 78.300781 23.390625 L 76.304688 21.386719 C 76.089844 21.175781 75.84375 21.011719 75.566406 20.894531 C 75.285156 20.78125 74.996094 20.722656 74.695312 20.722656 C 74.394531 20.722656 74.101562 20.78125 73.824219 20.894531 C 73.546875 21.011719 73.300781 21.175781 73.085938 21.386719 C 72.875 21.601562 72.625 21.765625 72.347656 21.878906 C 72.070312 21.996094 71.777344 22.054688 71.476562 22.054688 C 71.175781 22.054688 70.882812 21.996094 70.605469 21.878906 C 70.328125 21.765625 70.078125 21.601562 69.867188 21.386719 L 65.957031 17.476562 C 65.742188 17.265625 65.496094 17.101562 65.21875 16.984375 C 64.941406 16.871094 64.648438 16.8125 64.347656 16.8125 C 64.046875 16.8125 63.757812 16.871094 63.476562 16.984375 C 63.199219 17.101562 62.953125 17.265625 62.742188 17.476562 L 57.09375 23.128906 L 57.09375 28.457031 C 57.09375 28.75 57.152344 29.03125 57.261719 29.300781 C 57.375 29.570312 57.535156 29.8125 57.742188 30.019531 C 57.949219 30.226562 58.1875 30.382812 58.457031 30.496094 C 58.730469 30.609375 59.011719 30.664062 59.304688 30.664062 L 76.089844 30.664062 C 76.382812 30.664062 76.664062 30.609375 76.9375 30.496094 C 77.207031 30.382812 77.445312 30.226562 77.652344 30.019531 C 77.859375 29.8125 78.019531 29.570312 78.132812 29.300781 C 78.242188 29.03125 78.300781 28.75 78.300781 28.457031 Z M 78.300781 28.457031 " fill-opacity="1" fill-rule="nonzero"/></g><path fill="#ffffff" d="M 74.09375 15.539062 C 74.09375 15.8125 74.042969 16.074219 73.9375 16.328125 C 73.832031 16.582031 73.683594 16.804688 73.488281 16.996094 C 73.296875 17.191406 73.074219 17.339844 72.820312 17.445312 C 72.566406 17.550781 72.304688 17.601562 72.03125 17.601562 C 71.757812 17.601562 71.496094 17.550781 71.242188 17.445312 C 70.988281 17.339844 70.765625 17.191406 70.570312 16.996094 C 70.378906 16.804688 70.230469 16.582031 70.125 16.328125 C 70.019531 16.074219 69.96875 15.8125 69.96875 15.539062 C 69.96875 15.265625 70.019531 15 70.125 14.75 C 70.230469 14.496094 70.378906 14.273438 70.570312 14.078125 C 70.765625 13.886719 70.988281 13.738281 71.242188 13.632812 C 71.496094 13.527344 71.757812 13.476562 72.03125 13.476562 C 72.304688 13.476562 72.566406 13.527344 72.820312 13.632812 C 73.074219 13.738281 73.296875 13.886719 73.488281 14.078125 C 73.683594 14.273438 73.832031 14.496094 73.9375 14.75 C 74.042969 15 74.09375 15.265625 74.09375 15.539062 Z M 74.09375 15.539062 " fill-opacity="1" fill-rule="nonzero"/><g clip-path="url(#8eeac0404a)"><path fill="#dfe8f4" d="M 103.875 9.460938 L 120.625 9.460938 C 120.921875 9.460938 121.207031 9.515625 121.480469 9.628906 C 121.75 9.742188 121.992188 9.902344 122.199219 10.113281 C 122.410156 10.320312 122.570312 10.5625 122.683594 10.835938 C 122.796875 11.105469 122.851562 11.390625 122.851562 11.6875 L 122.851562 28.4375 C 122.851562 28.734375 122.796875 29.019531 122.683594 29.289062 C 122.570312 29.5625 122.410156 29.804688 122.199219 30.011719 C 121.992188 30.222656 121.75 30.382812 121.480469 30.496094 C 121.207031 30.609375 120.921875 30.664062 120.625 30.664062 L 103.875 30.664062 C 103.578125 30.664062 103.296875 30.609375 103.023438 30.496094 C 102.75 30.382812 102.507812 30.222656 102.300781 30.011719 C 102.089844 29.804688 101.929688 29.5625 101.816406 29.289062 C 101.703125 29.019531 101.648438 28.734375 101.648438 28.4375 L 101.648438 11.6875 C 101.648438 11.390625 101.703125 11.105469 101.816406 10.835938 C 101.929688 10.5625 102.089844 10.320312 102.300781 10.113281 C 102.507812 9.902344 102.75 9.742188 103.023438 9.628906 C 103.296875 9.515625 103.578125 9.460938 103.875 9.460938 Z M 103.875 9.460938 " fill-opacity="1" fill-rule="nonzero"/></g><g clip-path="url(#7259e26983)"><path fill="#0080ff" d="M 122.851562 28.457031 L 122.851562 23.390625 L 120.855469 21.386719 C 120.644531 21.175781 120.398438 21.011719 120.117188 20.894531 C 119.839844 20.78125 119.550781 20.722656 119.25 20.722656 C 118.945312 20.722656 118.65625 20.78125 118.378906 20.894531 C 118.097656 21.011719 117.855469 21.175781 117.640625 21.386719 C 117.425781 21.601562 117.179688 21.765625 116.902344 21.878906 C 116.621094 21.996094 116.332031 22.054688 116.03125 22.054688 C 115.726562 22.054688 115.4375 21.996094 115.160156 21.878906 C 114.878906 21.765625 114.632812 21.601562 114.417969 21.386719 L 110.511719 17.476562 C 110.296875 17.265625 110.050781 17.101562 109.773438 16.984375 C 109.492188 16.871094 109.203125 16.8125 108.902344 16.8125 C 108.601562 16.8125 108.308594 16.871094 108.03125 16.984375 C 107.753906 17.101562 107.507812 17.265625 107.292969 17.476562 L 101.648438 23.128906 L 101.648438 28.457031 C 101.648438 28.75 101.703125 29.03125 101.816406 29.300781 C 101.929688 29.570312 102.089844 29.8125 102.296875 30.019531 C 102.503906 30.226562 102.742188 30.382812 103.011719 30.496094 C 103.28125 30.609375 103.5625 30.664062 103.855469 30.664062 L 120.644531 30.664062 C 120.9375 30.664062 121.21875 30.609375 121.488281 30.496094 C 121.761719 30.382812 122 30.226562 122.207031 30.019531 C 122.414062 29.8125 122.574219 29.570312 122.683594 29.300781 C 122.796875 29.03125 122.851562 28.75 122.851562 28.457031 Z M 122.851562 28.457031 " fill-opacity="1" fill-rule="nonzero"/></g><path fill="#ffffff" d="M 118.648438 15.539062 C 118.648438 15.8125 118.59375 16.074219 118.492188 16.328125 C 118.386719 16.582031 118.238281 16.804688 118.042969 16.996094 C 117.851562 17.191406 117.625 17.339844 117.375 17.445312 C 117.121094 17.550781 116.859375 17.601562 116.585938 17.601562 C 116.3125 17.601562 116.046875 17.550781 115.792969 17.445312 C 115.542969 17.339844 115.320312 17.191406 115.125 16.996094 C 114.933594 16.804688 114.78125 16.582031 114.679688 16.328125 C 114.574219 16.074219 114.519531 15.8125 114.519531 15.539062 C 114.519531 15.265625 114.574219 15 114.679688 14.75 C 114.78125 14.496094 114.933594 14.273438 115.125 14.078125 C 115.320312 13.886719 115.542969 13.738281 115.792969 13.632812 C 116.046875 13.527344 116.3125 13.476562 116.585938 13.476562 C 116.859375 13.476562 117.121094 13.527344 117.375 13.632812 C 117.625 13.738281 117.851562 13.886719 118.042969 14.078125 C 118.238281 14.273438 118.386719 14.496094 118.492188 14.75 C 118.59375 15 118.648438 15.265625 118.648438 15.539062 Z M 118.648438 15.539062 " fill-opacity="1" fill-rule="nonzero"/><g clip-path="url(#6308ee4cf6)"><path fill="#dfe8f4" d="M 148.429688 9.460938 L 165.179688 9.460938 C 165.476562 9.460938 165.757812 9.515625 166.03125 9.628906 C 166.304688 9.742188 166.546875 9.902344 166.753906 10.113281 C 166.964844 10.320312 167.125 10.5625 167.238281 10.835938 C 167.351562 11.105469 167.40625 11.390625 167.40625 11.6875 L 167.40625 28.4375 C 167.40625 28.734375 167.351562 29.019531 167.238281 29.289062 C 167.125 29.5625 166.964844 29.804688 166.753906 30.011719 C 166.546875 30.222656 166.304688 30.382812 166.03125 30.496094 C 165.757812 30.609375 165.476562 30.664062 165.179688 30.664062 L 148.429688 30.664062 C 148.132812 30.664062 147.847656 30.609375 147.574219 30.496094 C 147.304688 30.382812 147.0625 30.222656 146.855469 30.011719 C 146.644531 29.804688 146.484375 29.5625 146.371094 29.289062 C 146.257812 29.019531 146.203125 28.734375 146.203125 28.4375 L 146.203125 11.6875 C 146.203125 11.390625 146.257812 11.105469 146.371094 10.835938 C 146.484375 10.5625 146.644531 10.320312 146.855469 10.113281 C 147.0625 9.902344 147.304688 9.742188 147.574219 9.628906 C 147.847656 9.515625 148.132812 9.460938 148.429688 9.460938 Z M 148.429688 9.460938 " fill-opacity="1" fill-rule="nonzero"/></g><g clip-path="url(#c4d8136554)"><path fill="#0080ff" d="M 167.40625 28.457031 L 167.40625 23.390625 L 165.410156 21.386719 C 165.195312 21.175781 164.949219 21.011719 164.671875 20.894531 C 164.394531 20.78125 164.101562 20.722656 163.800781 20.722656 C 163.5 20.722656 163.210938 20.78125 162.929688 20.894531 C 162.652344 21.011719 162.40625 21.175781 162.195312 21.386719 C 161.980469 21.601562 161.734375 21.765625 161.453125 21.878906 C 161.175781 21.996094 160.886719 22.054688 160.582031 22.054688 C 160.28125 22.054688 159.992188 21.996094 159.710938 21.878906 C 159.433594 21.765625 159.1875 21.601562 158.972656 21.386719 L 155.0625 17.476562 C 154.851562 17.265625 154.605469 17.101562 154.324219 16.984375 C 154.046875 16.871094 153.757812 16.8125 153.457031 16.8125 C 153.152344 16.8125 152.863281 16.871094 152.585938 16.984375 C 152.308594 17.101562 152.0625 17.265625 151.847656 17.476562 L 146.203125 23.128906 L 146.203125 28.457031 C 146.203125 28.75 146.257812 29.03125 146.371094 29.300781 C 146.480469 29.570312 146.640625 29.8125 146.847656 30.019531 C 147.054688 30.226562 147.292969 30.382812 147.566406 30.496094 C 147.835938 30.609375 148.117188 30.664062 148.410156 30.664062 L 165.199219 30.664062 C 165.492188 30.664062 165.773438 30.609375 166.042969 30.496094 C 166.3125 30.382812 166.550781 30.226562 166.757812 30.019531 C 166.96875 29.8125 167.125 29.570312 167.238281 29.300781 C 167.351562 29.03125 167.40625 28.75 167.40625 28.457031 Z M 167.40625 28.457031 " fill-opacity="1" fill-rule="nonzero"/></g><path fill="#ffffff" d="M 163.199219 15.539062 C 163.199219 15.8125 163.148438 16.074219 163.042969 16.328125 C 162.9375 16.582031 162.789062 16.804688 162.597656 16.996094 C 162.402344 17.191406 162.179688 17.339844 161.925781 17.445312 C 161.675781 17.550781 161.410156 17.601562 161.136719 17.601562 C 160.863281 17.601562 160.601562 17.550781 160.347656 17.445312 C 160.09375 17.339844 159.871094 17.191406 159.679688 16.996094 C 159.484375 16.804688 159.335938 16.582031 159.230469 16.328125 C 159.128906 16.074219 159.074219 15.8125 159.074219 15.539062 C 159.074219 15.265625 159.128906 15 159.230469 14.75 C 159.335938 14.496094 159.484375 14.273438 159.679688 14.078125 C 159.871094 13.886719 160.09375 13.738281 160.347656 13.632812 C 160.601562 13.527344 160.863281 13.476562 161.136719 13.476562 C 161.410156 13.476562 161.675781 13.527344 161.925781 13.632812 C 162.179688 13.738281 162.402344 13.886719 162.597656 14.078125 C 162.789062 14.273438 162.9375 14.496094 163.042969 14.75 C 163.148438 15 163.199219 15.265625 163.199219 15.539062 Z M 163.199219 15.539062 " fill-opacity="1" fill-rule="nonzero"/></svg>